<?xml version="1.0" encoding="utf-8"?>
<!-- Generator: Adobe Illustrator 24.3.0, SVG Export Plug-In . SVG Version: 6.00 Build 0)  -->
<svg version="1.1" id="Layer_1" xmlns="http://www.w3.org/2000/svg" xmlns:xlink="http://www.w3.org/1999/xlink" x="0px" y="0px"
	 viewBox="0 0 232 68" style="enable-background:new 0 0 232 68;" xml:space="preserve">
<style type="text/css">
	.st0{fill:#106DC1;}
	.st1{enable-background:new    ;}
	.st2{fill:#474747;}
</style>
<g>
	<g>
		<rect x="23.9" y="20.2" class="st0" width="8.4" height="8.4"/>
		<path class="st0" d="M43.2,20.2v8.4h8.4v-8.4H43.2z M43.2,20.2v8.4h8.4v-8.4H43.2z M23.9,39.4v8.4h8.4v-8.4H23.9z M43.2,20.2v8.4
			h8.4v-8.4H43.2z M23.9,39.4v8.4h8.4v-8.4H23.9z M43.2,20.2v8.4h8.4v-8.4H43.2z M43.2,20.2v8.4h8.4v-8.4H43.2z M23.9,47.9h8.4v-8.4
			h-8.4V47.9z M43.2,20.2v8.4h8.4v-8.4H43.2z M43.2,20.2v8.4h8.4v-8.4H43.2z"/>
		<path class="st0" d="M66.9,17.1c-1.5-6-6.2-10.7-12.2-12.2c-11.2-1.8-22.6-1.8-33.8,0c-6,1.5-10.7,6.2-12.2,12.2
			c-1.8,11.2-1.8,22.6,0,33.8c1.5,6,6.2,10.7,12.2,12.2c11.2,1.8,22.6,1.8,33.8,0c6-1.5,10.7-6.2,12.2-12.2
			C68.7,39.7,68.7,28.3,66.9,17.1z M49,49.4c0,0.8-0.7,1.6-1.6,1.6c-0.9,0-1.6-0.7-1.6-1.6v-4.2h-4.2c-0.8,0-1.6-0.7-1.6-1.6
			c0-0.8,0.7-1.6,1.6-1.6h4.2v-4.2c0-0.8,0.7-1.6,1.6-1.6c0.9,0,1.6,0.7,1.6,1.6V42h4.2c0.8,0,1.6,0.7,1.6,1.6
			c0,0.8-0.8,1.6-1.6,1.6H49V49.4z M54.8,30.2c0,0.8-0.7,1.6-1.6,1.6H41.6c-0.8,0-1.6-0.7-1.6-1.6V18.6c0-0.8,0.7-1.6,1.6-1.6h11.6
			c0.8,0,1.6,0.7,1.6,1.6C54.8,18.6,54.8,30.2,54.8,30.2z M20.8,49.4V37.8c0-0.8,0.7-1.6,1.6-1.6H34c0.8,0,1.6,0.7,1.6,1.6v11.6
			c0,0.8-0.7,1.6-1.6,1.6H22.3C21.5,51,20.8,50.4,20.8,49.4z M35.5,30.2c0,0.8-0.7,1.6-1.6,1.6H22.3c-0.8,0-1.6-0.7-1.6-1.6V18.6
			c0-0.8,0.7-1.6,1.6-1.6h11.6c0.8,0,1.6,0.7,1.6,1.6V30.2z"/>
	</g>
	<g>
		<rect x="43.2" y="20.2" class="st0" width="8.4" height="8.4"/>
		<rect x="23.9" y="20.2" class="st0" width="8.4" height="8.4"/>
		<rect x="23.9" y="39.4" class="st0" width="8.4" height="8.4"/>
	</g>
	<g class="st1">
		<path class="st2" d="M75.7,41.9c-1.4-1.4-2.1-3.3-2.1-5.7c0-2.1,0.4-3.9,1.2-5.5c0.8-1.6,1.9-2.8,3.2-3.7c1.3-0.9,2.7-1.3,4.2-1.3
			c1.4,0,2.5,0.4,3.3,1.3c0.8,0.8,1.2,1.9,1.2,3.2c0,1.1-0.2,2-0.7,2.8s-1.1,1.1-1.9,1.1c-0.5,0-0.9-0.1-1.2-0.3
			c-0.3-0.2-0.4-0.6-0.4-1c0-0.2,0-0.4,0.1-0.6c0.1-0.2,0.1-0.4,0.1-0.5c0.1-0.4,0.2-0.8,0.2-1.1c0-0.3-0.1-0.6-0.3-0.8
			c-0.2-0.2-0.4-0.3-0.7-0.3c-0.6,0-1.2,0.3-1.7,0.8s-0.9,1.3-1.2,2.2c-0.3,0.9-0.5,1.9-0.5,3c0,3,1.3,4.5,3.9,4.5
			c1.1,0,2.2-0.4,3.4-1.1c1.2-0.7,2.4-1.8,3.6-3.2c0.3-0.4,0.7-0.5,1-0.5s0.6,0.2,0.8,0.5c0.2,0.3,0.3,0.7,0.3,1.3
			c0,1-0.2,1.8-0.7,2.4c-1.2,1.5-2.7,2.7-4.4,3.5c-1.7,0.8-3.3,1.2-4.9,1.2C79.1,44,77.1,43.3,75.7,41.9z"/>
		<path class="st2" d="M89,42.3c-1-1.2-1.4-2.7-1.4-4.6c0-2.1,0.5-4,1.4-5.9c1-1.9,2.2-3.3,3.8-4.5c1.6-1.1,3.3-1.7,5.1-1.7
			c0.6,0,1,0.1,1.1,0.3c0.2,0.2,0.4,0.6,0.5,1.2c0.5-0.1,1.1-0.2,1.7-0.2c1.3,0,1.9,0.5,1.9,1.4c0,0.5-0.2,1.8-0.6,3.9
			c-0.6,3-0.9,5.1-0.9,6.2c0,0.4,0.1,0.7,0.3,0.9c0.2,0.2,0.4,0.3,0.8,0.3c0.5,0,1.1-0.3,1.8-1c0.7-0.6,1.6-1.7,2.8-3.1
			c0.3-0.4,0.7-0.5,1-0.5s0.6,0.2,0.8,0.5c0.2,0.3,0.3,0.7,0.3,1.3c0,1-0.2,1.8-0.7,2.4c-1.1,1.3-2.2,2.4-3.4,3.3
			c-1.2,0.9-2.3,1.4-3.5,1.4c-0.9,0-1.6-0.3-2.4-0.9c-0.7-0.6-1.3-1.4-1.6-2.4c-1.3,2.2-3,3.3-5.1,3.3C91.3,44,90,43.4,89,42.3z
			 M95.9,39.1c0.5-0.7,0.9-1.6,1.1-2.7l1.4-7.2c-1.1,0-2.1,0.4-3,1.2c-0.9,0.8-1.7,1.8-2.2,3.1s-0.8,2.7-0.8,4.1
			c0,0.8,0.2,1.4,0.5,1.8c0.3,0.4,0.8,0.6,1.3,0.6C94.9,40.1,95.4,39.8,95.9,39.1z"/>
		<path class="st2" d="M124.5,35.6c0.2,0.3,0.3,0.7,0.3,1.3c0,1-0.2,1.8-0.7,2.4c-1.1,1.4-2.3,2.5-3.7,3.4c-1.3,0.9-2.8,1.3-4.5,1.3
			c-5.3,0-7.9-3.7-7.9-11.2c0-1.1,0-2.3,0.1-3.5h-1.5c-0.8,0-1.3-0.1-1.6-0.4c-0.3-0.3-0.4-0.7-0.4-1.4c0-1.5,0.6-2.2,1.7-2.2h2.2
			c0.4-2.8,1.1-5.5,2-7.8c0.9-2.4,2-4.2,3.3-5.6s2.7-2.1,4.1-2.1c1.1,0,1.9,0.5,2.6,1.4s0.9,2.2,0.9,3.6c0,4-1.7,7.5-5.1,10.5h4.4
			c0.4,0,0.7,0.1,0.9,0.3c0.2,0.2,0.3,0.5,0.3,1c0,1.8-1.5,2.7-4.4,2.7h-4.7c-0.1,1.3-0.1,2.3-0.1,3c0,2.7,0.3,4.6,1,5.7
			c0.6,1.1,1.6,1.6,3,1.6c1.1,0,2.1-0.3,3-1s1.9-1.7,3-3c0.3-0.4,0.7-0.5,1-0.5C124,35.2,124.3,35.3,124.5,35.6z M115.6,15.1
			c-0.5,1-0.9,2.3-1.4,4c-0.4,1.7-0.8,3.6-1.1,5.7c1.5-1.3,2.7-2.8,3.4-4.5c0.8-1.6,1.1-3.1,1.1-4.5c0-1.5-0.3-2.3-0.9-2.3
			C116.5,13.6,116.1,14.1,115.6,15.1z"/>
		<path class="st2" d="M122.6,42.3c-1-1.2-1.4-2.7-1.4-4.6c0-2.1,0.5-4,1.4-5.9c1-1.9,2.2-3.3,3.8-4.5c1.6-1.1,3.3-1.7,5.1-1.7
			c0.6,0,1,0.1,1.1,0.3c0.2,0.2,0.4,0.6,0.5,1.2c0.5-0.1,1.1-0.2,1.7-0.2c1.3,0,1.9,0.5,1.9,1.4c0,0.5-0.2,1.8-0.6,3.9
			c-0.6,3-0.9,5.1-0.9,6.2c0,0.4,0.1,0.7,0.3,0.9s0.4,0.3,0.8,0.3c0.5,0,1.1-0.3,1.8-1c0.7-0.6,1.6-1.7,2.8-3.1
			c0.3-0.4,0.7-0.5,1-0.5s0.6,0.2,0.8,0.5s0.3,0.7,0.3,1.3c0,1-0.2,1.8-0.7,2.4c-1.1,1.3-2.2,2.4-3.4,3.3c-1.2,0.9-2.3,1.4-3.5,1.4
			c-0.9,0-1.6-0.3-2.4-0.9c-0.7-0.6-1.3-1.4-1.6-2.4c-1.3,2.2-3,3.3-5.1,3.3C124.8,44,123.5,43.4,122.6,42.3z M129.5,39.1
			c0.5-0.7,0.9-1.6,1.1-2.7l1.4-7.2c-1.1,0-2.1,0.4-3,1.2c-0.9,0.8-1.7,1.8-2.2,3.1s-0.8,2.7-0.8,4.1c0,0.8,0.2,1.4,0.5,1.8
			c0.3,0.4,0.8,0.6,1.3,0.6C128.4,40.1,128.9,39.8,129.5,39.1z"/>
		<path class="st2" d="M155.4,35.6c0.2,0.3,0.3,0.7,0.3,1.3c0,1-0.2,1.8-0.7,2.4c-1.1,1.4-2.3,2.5-3.6,3.4s-2.8,1.3-4.5,1.3
			c-2.3,0-4-1-5.1-3.1s-1.7-4.8-1.7-8s0.4-6.8,1.2-10.8s2-7.5,3.6-10.4s3.5-4.4,5.7-4.4c1.2,0,2.2,0.6,2.9,1.7
			c0.7,1.2,1.1,2.8,1.1,5c0,3.1-0.9,6.7-2.6,10.7c-1.7,4.1-4,8.1-7,12.1c0.2,1.1,0.5,1.8,0.9,2.3s1,0.7,1.6,0.7c1.1,0,2-0.3,2.8-0.9
			c0.8-0.6,1.8-1.7,3.1-3.1c0.3-0.4,0.7-0.5,1-0.5C155,35.2,155.2,35.3,155.4,35.6z M147.8,14.4c-0.8,2.2-1.4,4.8-2,8
			s-0.9,6.2-0.9,9.2c1.8-3,3.3-6.1,4.4-9.1c1.1-3,1.6-5.8,1.6-8.3c0-2-0.4-3-1.1-3C149.3,11.1,148.6,12.2,147.8,14.4z"/>
		<path class="st2" d="M173.2,32.4c0.2,0.3,0.3,0.8,0.3,1.3c0,1.2-0.4,2-1.1,2.2c-1.6,0.5-3.3,0.9-5.1,0.9c-0.5,2.2-1.5,3.9-2.9,5.2
			c-1.5,1.3-3.1,2-4.9,2c-1.6,0-2.9-0.4-4-1.1c-1.1-0.8-1.9-1.7-2.5-3c-0.6-1.2-0.9-2.6-0.9-4c0-2,0.4-3.7,1.1-5.3s1.8-2.7,3.1-3.6
			s2.8-1.3,4.4-1.3c2,0,3.6,0.7,4.8,2c1.2,1.4,1.9,3,2.1,5c1.2-0.1,2.7-0.3,4.4-0.8c0.2-0.1,0.4-0.1,0.5-0.1
			C172.7,31.9,173,32.1,173.2,32.4z M161.8,38.9c0.6-0.7,1-1.6,1.2-2.9c-0.8-0.5-1.4-1.3-1.8-2.1c-0.4-0.9-0.6-1.8-0.6-2.8
			c0-0.4,0-0.8,0.1-1.2h-0.2c-1,0-1.9,0.5-2.6,1.5c-0.7,1-1,2.4-1,4.2c0,1.4,0.3,2.5,0.8,3.3c0.6,0.8,1.2,1.1,2,1.1
			C160.5,39.9,161.2,39.6,161.8,38.9z"/>
		<path class="st2" d="M190.8,35.7c0.2,0.3,0.3,0.7,0.3,1.2c0,0.6-0.1,1.1-0.3,1.4c-0.2,0.3-0.5,0.6-0.9,0.9
			c-2.2,1.5-3.9,2.6-4.9,3.3l-2.5,1.7c-1,5.4-2.3,9.6-3.9,12.6c-1.6,3.1-3.6,4.6-6.1,4.6c-1.3,0-2.4-0.4-3.2-1.2s-1.2-1.9-1.2-3.2
			c0-1.8,0.7-3.8,2.2-5.9c1.4-2.1,4.2-4.7,8.2-7.8l0.2-1.5c-0.4,0.7-1,1.2-1.7,1.6c-0.7,0.4-1.4,0.6-2.1,0.6c-1.6,0-2.9-0.6-3.8-1.7
			c-1-1.2-1.4-2.7-1.4-4.6c0-2.1,0.5-4,1.4-5.9c1-1.9,2.2-3.3,3.8-4.5c1.6-1.1,3.3-1.7,5.1-1.7c0.6,0,1,0.1,1.1,0.3
			c0.2,0.2,0.4,0.6,0.5,1.2c0.5-0.1,1.1-0.2,1.7-0.2c0.6,0,1.1,0.1,1.4,0.3c0.3,0.2,0.4,0.6,0.4,1.1c0,0.3,0,0.6,0,0.7
			c-0.1,0.8-0.4,2.8-1,6.1c-0.1,0.6-0.2,1.3-0.3,2s-0.2,1.5-0.4,2.4c2-1.6,3.9-2.9,5.8-4.1c0.3-0.2,0.6-0.3,0.9-0.3
			C190.3,35.2,190.6,35.4,190.8,35.7z M175.3,55.4c0.8-1.6,1.6-4,2.4-7.4c-2,1.7-3.4,3.3-4.3,4.6c-0.9,1.4-1.3,2.6-1.3,3.6
			c0,0.4,0.1,0.8,0.3,1.1s0.4,0.4,0.8,0.4C173.7,57.7,174.4,57,175.3,55.4z M178,39c0.5-0.7,0.9-1.8,1.2-3.1l1.2-6.6
			c-1.1,0-2,0.4-3,1.2c-0.9,0.8-1.6,1.8-2.2,3.1c-0.5,1.3-0.8,2.7-0.8,4.1c0,0.8,0.2,1.4,0.5,1.8c0.3,0.4,0.8,0.6,1.3,0.6
			C176.9,40.1,177.4,39.7,178,39z"/>
		<path class="st2" d="M189.4,42.4c-0.7-1.1-1.1-2.4-1.1-4c0-1.9,0.1-3.7,0.4-5.3c0.3-1.6,0.7-3.3,1.3-5.1c0.3-0.8,0.6-1.3,1.1-1.7
			c0.5-0.3,1.2-0.5,2.2-0.5c0.6,0,1,0.1,1.2,0.3c0.2,0.2,0.3,0.5,0.3,0.8c0,0.2-0.1,0.9-0.4,2.1c-0.3,1-0.5,1.8-0.6,2.6
			c-0.5,2.7-0.8,4.5-0.8,5.4c0,0.5,0.1,0.9,0.2,1.1c0.1,0.2,0.3,0.3,0.6,0.3c0.4,0,0.9-0.4,1.5-1.2s1.2-2,1.9-3.5
			c0.7-1.6,1.3-3.5,1.9-5.8c0.2-0.8,0.5-1.3,1-1.7c0.4-0.3,1.1-0.5,1.9-0.5c0.6,0,1,0.1,1.2,0.2s0.3,0.4,0.3,0.8
			c0,0.6-0.3,2.4-1,5.3c-0.7,3.3-1.1,5.4-1.1,6.1c0,0.5,0.1,0.9,0.3,1.1c0.2,0.3,0.5,0.4,0.8,0.4c0.5,0,1.1-0.3,1.8-1
			c0.7-0.6,1.7-1.7,2.9-3.1c0.3-0.4,0.7-0.5,1-0.5s0.6,0.2,0.8,0.5s0.3,0.7,0.3,1.3c0,1-0.2,1.8-0.7,2.4c-1.1,1.4-2.3,2.5-3.6,3.4
			s-2.7,1.3-4.4,1.3c-1.2,0-2.2-0.5-2.7-1.4c-0.6-1-0.9-2.3-0.9-4c-0.4,1.8-1.1,3.1-2,4.1c-0.9,0.9-1.8,1.4-2.8,1.4
			C191.1,44,190.1,43.5,189.4,42.4z"/>
		<path class="st2" d="M224.4,35.6c0.2,0.3,0.3,0.7,0.3,1.3c0,1-0.2,1.8-0.7,2.4c-1,1.2-2.3,2.2-4.1,3.2c-1.7,1-3.6,1.5-5.6,1.5
			c-2.7,0-4.8-0.7-6.3-2.2s-2.3-3.5-2.3-6.1c0-1.8,0.4-3.5,1.1-5c0.8-1.5,1.8-2.8,3.1-3.7c1.3-0.9,2.8-1.4,4.5-1.4
			c1.5,0,2.7,0.4,3.6,1.3c0.9,0.9,1.4,2.1,1.4,3.6c0,1.8-0.6,3.3-1.9,4.6c-1.3,1.3-3.5,2.3-6.5,3.1c0.6,1.2,1.9,1.8,3.7,1.8
			c1.2,0,2.5-0.4,4-1.2s2.8-1.9,3.9-3.2c0.3-0.4,0.7-0.5,1-0.5C223.9,35.2,224.2,35.3,224.4,35.6z M211.4,31.2c-0.7,1.1-1,2.5-1,4
			v0.1c1.5-0.4,2.7-0.9,3.6-1.6c0.9-0.7,1.3-1.6,1.3-2.5c0-0.5-0.1-0.9-0.4-1.2c-0.3-0.3-0.6-0.4-1.1-0.4
			C212.8,29.5,212,30.1,211.4,31.2z"/>
	</g>
</g>
</svg>
