<svg xmlns="http://www.w3.org/2000/svg" viewBox="0 0 336.91 111.12"><defs><style>.cls-1{fill:#fff;}.cls-2{fill:#2f6ab1;}</style></defs><g id="Layer_2" data-name="Layer 2"><g id="Layer_1-2" data-name="Layer 1"><path class="cls-1" d="M69.72,109.91,51.19,88.54A38,38,0,0,1,44.7,89a45,45,0,0,1-22.47-5.76A43,43,0,0,1,6,67.35a44.22,44.22,0,0,1-6-22.9,44.37,44.37,0,0,1,6-22.9A42.76,42.76,0,0,1,22.23,5.69,45.42,45.42,0,0,1,44.7,0,45.12,45.12,0,0,1,67.11,5.69a42.42,42.42,0,0,1,16.1,15.86,44.53,44.53,0,0,1,5.94,22.9,45.06,45.06,0,0,1-4,19.17A43.19,43.19,0,0,1,74,78.5l27.84,31.41ZM32.08,58.47q4.41,5.22,12.62,5.21t12.49-5.21q4.41-5.19,4.41-14T57.19,30.31Q52.78,25.12,44.7,25.1T32.08,30.31q-4.38,5.22-4.4,14.14T32.08,58.47Z"/><path class="cls-1" d="M254.53,51.25a21,21,0,0,1,4.35,13.16q0,11.4-7.53,17.58t-21.62,6.18H184.3V1.47h44.21q13.23,0,20.82,5.76T256.92,24a20.35,20.35,0,0,1-4,12.8,18.91,18.91,0,0,1-10.59,6.92A20.64,20.64,0,0,1,254.53,51.25Zm-43-16H222c2.45,0,4.26-.49,5.45-1.47a5.52,5.52,0,0,0,1.77-4.53,5.87,5.87,0,0,0-1.77-4.72A8.32,8.32,0,0,0,222,23H211.49ZM229.3,65q1.78-1.38,1.78-4.59,0-6.24-7.22-6.24H211.49v12.2h12.37A9,9,0,0,0,229.3,65Z"/><path class="cls-1" d="M123.23,111.12l-2.76-2.59a6.35,6.35,0,0,1-1.89.27,6,6,0,0,1-5.3-3.08,7.23,7.23,0,0,1,0-6.59,6,6,0,0,1,2.2-2.27,6.34,6.34,0,0,1,6.23,0,5.76,5.76,0,0,1,2.19,2.27,7.25,7.25,0,0,1,0,6.66,5.58,5.58,0,0,1-2.28,2.26l3.3,3.07Zm-8.85-5.9a4.65,4.65,0,0,0,1.73,1.84,4.78,4.78,0,0,0,2.47.65,4.64,4.64,0,0,0,2.47-.65,4.33,4.33,0,0,0,1.73-1.84,6.42,6.42,0,0,0,0-5.59,4.55,4.55,0,0,0-1.73-1.83,4.73,4.73,0,0,0-2.47-.65,4.88,4.88,0,0,0-2.47.65,4.69,4.69,0,0,0-1.73,1.83,6,6,0,0,0-.63,2.79A6.17,6.17,0,0,0,114.38,105.22Z"/><path class="cls-1" d="M134.68,96.19V104a3.83,3.83,0,0,0,.87,2.76,3.64,3.64,0,0,0,4.76,0,3.82,3.82,0,0,0,.86-2.77v-7.8h1.23V104a4.69,4.69,0,0,1-1.24,3.57,5,5,0,0,1-6.48,0,4.82,4.82,0,0,1-1.24-3.57V96.19Z"/><path class="cls-1" d="M152.92,96.19v12.48h-1.23V96.19Z"/><path class="cls-1" d="M162.48,99.13a5.87,5.87,0,0,1,2.18-2.27,5.94,5.94,0,0,1,3.07-.82,6.18,6.18,0,0,1,3.53,1,5.6,5.6,0,0,1,2.15,2.79H172a4.26,4.26,0,0,0-1.61-2,4.73,4.73,0,0,0-2.62-.72,4.81,4.81,0,0,0-2.45.65,4.46,4.46,0,0,0-1.7,1.85,6.64,6.64,0,0,0,0,5.58,4.44,4.44,0,0,0,1.7,1.84,5.1,5.1,0,0,0,5.07-.07,4.11,4.11,0,0,0,1.61-2h1.45a5.56,5.56,0,0,1-2.15,2.77,6.22,6.22,0,0,1-3.53,1,5.87,5.87,0,0,1-5.25-3.07,7.27,7.27,0,0,1,0-6.58Z"/><path class="cls-1" d="M189,108.67l-5.35-5.77v5.77h-1.23V96.19h1.23V102L189,96.19h1.57l-5.77,6.23,5.83,6.25Z"/><path class="cls-1" d="M217.84,103.29a3.23,3.23,0,0,1,.25,3.71,3.08,3.08,0,0,1-1.36,1.19,4.7,4.7,0,0,1-2.16.44H210.3V96.19h4.15a4.16,4.16,0,0,1,2.85.87,2.87,2.87,0,0,1,1,2.27,2.69,2.69,0,0,1-.62,1.88,3.08,3.08,0,0,1-1.59,1A3,3,0,0,1,217.84,103.29Zm-6.3-1.58h2.87a2.83,2.83,0,0,0,1.94-.6,2.06,2.06,0,0,0,.68-1.65,2,2,0,0,0-.68-1.63,3,3,0,0,0-2-.59h-2.82Zm5,5.26a2.16,2.16,0,0,0,.75-1.76,2.23,2.23,0,0,0-.79-1.8,3.12,3.12,0,0,0-2.11-.67H211.5v4.88h3a3.09,3.09,0,0,0,2.08-.62Z"/><path class="cls-1" d="M228.55,96.19V104a3.83,3.83,0,0,0,.87,2.76,3.66,3.66,0,0,0,4.77,0A3.82,3.82,0,0,0,235,104V96.19h1.24V104a4.72,4.72,0,0,1-1.24,3.6,5,5,0,0,1-6.47,0,4.78,4.78,0,0,1-1.25-3.57V96.19Z"/><path class="cls-1" d="M253.71,96.19l-4,7.62v4.86h-1.24v-4.86l-4-7.62h1.39l3.21,6.48,3.19-6.48Z"/><path class="cls-1" d="M275,108.37a3.69,3.69,0,0,1-1.46-1.2,3.25,3.25,0,0,1-.56-1.71h1.31a2.48,2.48,0,0,0,.79,1.59,3.41,3.41,0,0,0,4.05,0,2.06,2.06,0,0,0,.73-1.65,1.93,1.93,0,0,0-.4-1.3,2.59,2.59,0,0,0-1-.73,15.24,15.24,0,0,0-1.66-.52,13,13,0,0,1-2-.67,3,3,0,0,1-1.23-1,3.12,3.12,0,0,1-.52-1.83,3.22,3.22,0,0,1,.5-1.73A3.4,3.4,0,0,1,275,96.47a4.81,4.81,0,0,1,2-.47,4.31,4.31,0,0,1,2.76.85A3.17,3.17,0,0,1,281,99.08h-1.34a2.24,2.24,0,0,0-.83-1.37,3.31,3.31,0,0,0-3.76,0,2,2,0,0,0-.74,1.64,1.93,1.93,0,0,0,.4,1.27,2.75,2.75,0,0,0,1,.73,12.18,12.18,0,0,0,1.65.53,18.5,18.5,0,0,1,1.94.67,3.14,3.14,0,0,1,1.25,1,2.91,2.91,0,0,1,.51,1.83,3.12,3.12,0,0,1-.46,1.66,3.37,3.37,0,0,1-1.35,1.27,4.47,4.47,0,0,1-2.16.48A5.13,5.13,0,0,1,275,108.37Z"/><path class="cls-1" d="M299.18,96.19v12.48H298v-5.84h-6.69v5.84H290V96.19h1.24v5.61H298V96.19Z"/><path class="cls-1" d="M311,108a5.9,5.9,0,0,1-2.2-2.26,7.23,7.23,0,0,1,0-6.59,6,6,0,0,1,2.2-2.27,6.34,6.34,0,0,1,6.23,0,5.76,5.76,0,0,1,2.19,2.27,7.23,7.23,0,0,1,0,6.59A5.68,5.68,0,0,1,317.2,108a6.29,6.29,0,0,1-6.23,0Zm5.58-.92a4.42,4.42,0,0,0,1.72-1.84,6.42,6.42,0,0,0,0-5.59,4.46,4.46,0,0,0-1.72-1.83,5,5,0,0,0-4.95,0,4.69,4.69,0,0,0-1.73,1.83,6,6,0,0,0-.63,2.79,6.17,6.17,0,0,0,.63,2.8,4.58,4.58,0,0,0,1.73,1.84A5,5,0,0,0,316.58,107.08Z"/><path class="cls-1" d="M335.82,102.37a4.42,4.42,0,0,1-3.13,1H330.2v5.32H329V96.19h3.72a4.46,4.46,0,0,1,3.12,1,3.74,3.74,0,0,1,0,5.2Zm-.24-2.59a2.41,2.41,0,0,0-.68-1.89,3.12,3.12,0,0,0-2.21-.65H330.2v5h2.49c1.93,0,2.89-.8,2.89-2.46Z"/><path class="cls-2" d="M267.52,74.18V22.05a3,3,0,0,1,3-2.95H334a3,3,0,0,1,3,2.95V74.18a14.26,14.26,0,0,1-14.27,14.26H281.78A14.27,14.27,0,0,1,267.52,74.18Z"/><path class="cls-1" d="M282.75,19.1V43.49q0,13.08,5.26,19.37t14.4,6.29q9.13,0,14.29-6.22t5.16-19.44V19.1h7.44V43.36q0,16.74-7.5,25.16T302.3,77q-12,0-19.5-8.43t-7.49-25.16V19.1Z"/><rect x="275.2" y="19.1" width="7.55" height="7.78"/><rect x="321.75" y="19.1" width="7.55" height="7.78"/><path class="cls-2" d="M101.9,74.18V22.05a3,3,0,0,1,2.95-2.95h63.44a3,3,0,0,1,3,2.95V74.18A14.26,14.26,0,0,1,157,88.44H116.16A14.27,14.27,0,0,1,101.9,74.18Z"/><path class="cls-1" d="M117.13,19.1V43.49q0,13.08,5.26,19.37t14.4,6.29q9.15,0,14.29-6.22t5.16-19.44V19.1h7.44V43.36q0,16.74-7.5,25.16T136.68,77q-12,0-19.5-8.43t-7.49-25.16V19.1Z"/><rect x="109.58" y="19.1" width="7.55" height="7.78"/><rect x="156.13" y="19.1" width="7.55" height="7.78"/></g></g></svg>